<svg xmlns="http://www.w3.org/2000/svg" version="1.0" width="943.000000pt" height="483.000000pt" viewBox="0 0 943.000000 483.000000" preserveAspectRatio="xMidYMid meet">

<g transform="translate(0.000000,483.000000) scale(0.100000,-0.100000)" fill="#de4907" stroke="none">
<path d="M2917 3733 c-4 -3 -7 -458 -7 -1010 l0 -1003 140 0 140 0 0 1010 0 1010 -133 0 c-74 0 -137 -3 -140 -7z" fill="#de4907"/>
<path d="M7511 3366 c-35 -37 -45 -89 -25 -128 26 -50 53 -67 108 -68 42 0 53 5 82 34 19 19 34 41 34 50 0 14 15 16 106 16 58 0 115 -5 127 -11 12 -6 52 -42 89 -79 69 -70 88 -111 74 -165 -6 -23 -10 -25 -71 -25 -103 0 -132 -24 -144 -120 l-6 -45 -53 -5 c-48 -4 -61 -11 -122 -65 -94 -83 -100 -97 -100 -249 l0 -126 -34 -14 c-70 -29 -96 -109 -56 -174 52 -85 181 -62 211 37 14 47 -4 88 -53 122 -18 13 -36 27 -39 32 -3 5 -6 67 -5 138 l1 130 40 37 c116 107 123 112 170 112 l45 0 0 -139 c0 -76 5 -152 11 -169 17 -49 66 -72 154 -72 49 0 74 -4 77 -12 2 -7 5 -57 7 -110 l2 -97 -38 -24 c-52 -33 -64 -49 -70 -96 -6 -47 24 -105 60 -115 95 -25 167 16 167 96 0 58 -18 89 -63 111 l-37 19 0 114 0 114 106 0 c123 0 154 12 185 73 30 57 55 51 136 -34 37 -39 71 -76 75 -83 4 -6 0 -32 -8 -57 -14 -41 -14 -50 -1 -82 20 -48 60 -72 116 -71 37 1 49 7 73 32 52 59 49 115 -8 169 -27 25 -44 33 -73 33 -20 0 -42 -5 -49 -12 -8 -8 -31 10 -92 75 -70 74 -87 86 -118 89 l-37 3 0 70 0 70 34 3 c56 6 77 -5 116 -58 41 -56 79 -80 125 -80 25 0 33 -5 41 -29 12 -34 78 -81 113 -81 40 0 85 32 107 77 19 38 19 44 5 78 -29 68 -77 94 -145 75 -39 -10 -81 -50 -81 -76 0 -17 -34 -27 -62 -19 -13 4 -52 38 -88 76 -65 68 -66 69 -118 69 l-52 0 0 90 c0 137 -26 170 -133 170 -91 0 -94 24 -13 108 l50 52 73 0 73 0 14 -33 c18 -43 56 -67 107 -67 57 0 109 50 109 107 0 60 -10 81 -47 104 -64 40 -161 9 -177 -57 -6 -22 -11 -24 -72 -24 -37 0 -77 -6 -92 -14 -43 -23 -100 -88 -115 -131 -13 -38 -16 -40 -58 -40 l-44 0 -6 63 -6 64 -86 85 -85 86 -121 5 c-88 3 -121 8 -121 17 0 7 -13 27 -29 44 -26 28 -35 31 -88 31 -50 0 -63 -4 -82 -24z m113 4 c14 -5 34 -23 45 -41 42 -68 -19 -152 -97 -134 -80 17 -95 124 -24 168 32 19 42 20 76 7z m1074 -146 c33 -38 30 -89 -9 -125 -40 -38 -79 -38 -121 0 -25 22 -32 37 -32 64 0 86 105 125 162 61z m-284 -280 c24 -23 24 -445 0 -468 -13 -14 -49 -16 -239 -16 -220 0 -224 0 -239 22 -13 19 -16 58 -16 228 0 170 3 209 16 228 15 22 19 22 239 22 190 0 226 -2 239 -16z m561 -336 c19 -35 19 -38 2 -72 -31 -67 -112 -76 -157 -19 -27 35 -25 75 5 112 45 53 115 43 150 -21z m-182 -243 c46 -19 61 -47 54 -98 -8 -62 -69 -95 -132 -71 -37 15 -59 103 -32 136 9 12 56 42 73 48 1 0 18 -7 37 -15z m-1134 -30 c59 -30 62 -120 6 -155 -40 -24 -58 -25 -96 -3 -56 33 -57 127 0 158 34 18 55 18 90 0z m552 -204 c38 -38 39 -85 4 -124 -35 -37 -101 -38 -134 -3 -39 42 -26 126 22 146 43 17 78 11 108 -19z" fill="#de4907"/>
<path d="M8024 2845 c-4 -9 -2 -21 4 -27 15 -15 44 -1 40 19 -4 23 -36 29 -44 8z" fill="#de4907"/>
<path d="M8150 2835 c0 -22 4 -26 23 -23 14 2 22 10 22 23 0 13 -8 21 -22 23 -19 3 -23 -1 -23 -23z" fill="#de4907"/>
<path d="M8150 2710 c0 -15 7 -20 25 -20 18 0 25 5 25 20 0 15 -7 20 -25 20 -18 0 -25 -5 -25 -20z" fill="#de4907"/>
<path d="M8280 2710 c0 -15 7 -20 25 -20 18 0 25 5 25 20 0 15 -7 20 -25 20 -18 0 -25 -5 -25 -20z" fill="#de4907"/>
<path d="M8024 2596 c-8 -21 3 -36 27 -36 15 0 20 6 17 22 -4 27 -35 37 -44 14z" fill="#de4907"/>
<path d="M8287 2604 c-4 -4 -7 -16 -7 -26 0 -14 6 -19 23 -16 14 2 22 10 22 23 0 20 -25 32 -38 19z" fill="#de4907"/>
<path d="M3398 3072 c-16 -3 -18 -18 -18 -131 l0 -128 80 -6 c101 -8 172 -33 212 -74 58 -60 62 -92 66 -575 l3 -438 140 0 139 0 0 444 c0 369 -3 457 -16 522 -43 209 -172 349 -351 383 -57 11 -214 13 -255 3z" fill="#de4907"/>
<path d="M1455 3063 c-95 -8 -215 -64 -281 -131 -35 -37 -85 -133 -110 -212 -15 -48 -18 -115 -21 -530 -4 -535 -6 -554 -70 -610 -41 -36 -60 -45 -125 -54 l-48 -7 0 -135 0 -134 46 0 c69 0 183 29 247 63 102 53 173 153 213 297 16 57 19 124 23 550 l6 486 25 48 c24 46 40 58 122 98 10 4 34 8 53 8 l35 0 0 133 0 134 -37 0 c-21 0 -56 -2 -78 -4z" fill="#de4907"/>
<path d="M2375 3060 c-114 -12 -207 -61 -276 -145 -49 -59 -74 -113 -99 -210 -18 -74 -20 -112 -20 -532 l0 -453 140 0 140 0 0 443 c0 490 2 510 63 574 30 32 104 63 151 63 l26 0 0 135 0 135 -32 -2 c-18 0 -60 -4 -93 -8z" fill="#de4907"/>
<path d="M4897 2123 l-38 -15 1 -295 c1 -162 4 -301 7 -309 3 -9 20 -14 49 -14 l44 0 0 65 0 65 56 56 c31 30 60 52 64 47 5 -4 36 -59 70 -120 l61 -113 50 0 c27 0 49 2 49 4 0 2 -34 71 -75 153 -41 82 -75 156 -75 164 0 8 33 48 73 89 l72 75 -55 3 -55 3 -108 -110 c-60 -61 -113 -111 -118 -111 -5 0 -9 85 -9 190 0 208 3 201 -63 173z" fill="#de4907"/>
<path d="M6293 2108 c-24 -25 -33 -44 -35 -78 -3 -38 -7 -46 -25 -48 -20 -3 -23 -9 -23 -52 0 -43 3 -49 23 -52 22 -3 22 -4 25 -196 l2 -193 48 3 47 3 2 175 c1 96 2 183 3 193 0 14 9 17 45 17 l45 0 0 49 0 50 -47 3 c-46 3 -48 4 -48 33 1 29 3 30 48 33 l47 3 0 45 0 44 -63 0 c-58 0 -66 -3 -94 -32z" fill="#de4907"/>
<path d="M6600 2121 c-34 -18 -35 -21 -38 -82 -2 -51 -9 -70 -33 -103 -36 -50 -36 -56 1 -56 l30 0 0 -154 0 -154 40 -41 c38 -39 43 -41 100 -41 l60 0 0 50 0 50 -50 0 -50 0 0 144 0 145 52 3 c51 3 52 3 53 38 3 54 -2 60 -56 60 l-49 0 0 80 c0 89 -3 92 -60 61z" fill="#de4907"/>
<path d="M4168 1868 c2 -128 0 -243 -3 -255 -5 -22 -9 -23 -130 -23 -142 0 -148 -4 -87 -63 l38 -37 100 0 100 0 37 38 37 38 0 267 0 267 -47 0 -48 0 3 -232z" fill="#de4907"/>
<path d="M4380 1795 l0 -305 149 0 149 0 36 40 36 40 0 233 0 233 -34 32 -34 32 -151 0 -151 0 0 -305z m270 5 l0 -210 -84 0 c-67 0 -85 3 -90 16 -8 20 -8 352 0 382 6 21 12 22 90 22 l84 0 0 -210z" fill="#de4907"/>
<path d="M5390 1734 l0 -245 48 3 47 3 2 155 c2 85 3 172 3 192 l0 37 97 3 c109 3 122 14 76 68 -20 25 -32 30 -67 30 -34 0 -48 -6 -70 -29 -26 -27 -66 -33 -66 -10 0 5 -6 9 -14 9 -7 0 -19 7 -26 15 -7 8 -16 15 -21 15 -5 0 -9 -110 -9 -246z" fill="#de4907"/>
<path d="M5798 1939 c-21 -21 -38 -44 -38 -49 0 -6 53 -10 136 -10 l135 0 -3 -47 -3 -48 -95 -3 -95 -3 -42 -41 c-41 -41 -43 -44 -43 -104 0 -58 2 -64 40 -103 38 -39 42 -41 102 -41 56 0 65 3 94 31 l33 32 38 -24 c21 -12 41 -28 45 -33 16 -23 19 11 19 204 l0 203 -38 39 -37 38 -106 0 -105 -1 -37 -40z m230 -301 l3 -48 -90 0 -91 0 0 50 0 51 88 -3 87 -3 3 -47z" fill="#de4907"/>
<path d="M7126 1940 c-20 -22 -36 -45 -36 -50 0 -6 50 -10 129 -10 94 0 130 -3 133 -12 4 -11 3 -38 -1 -80 -1 -5 -42 -8 -93 -8 l-92 0 -43 -42 c-42 -41 -43 -44 -43 -105 0 -58 3 -66 36 -103 35 -39 38 -40 102 -40 61 0 69 3 99 32 l33 32 45 -32 c25 -18 48 -32 50 -32 3 0 5 94 5 208 l0 208 -38 37 -38 37 -106 0 -106 0 -36 -40z m228 -290 c-1 -19 -2 -41 -3 -47 -1 -9 -25 -13 -86 -13 l-85 0 0 50 0 51 88 -3 87 -3 -1 -35z" fill="#de4907"/>
<path d="M7564 1936 c-3 -7 -4 -110 -2 -227 l3 -214 48 -3 47 -3 0 230 0 231 -45 0 c-30 0 -48 -5 -51 -14z" fill="#de4907"/>
<path d="M6860 1551 l0 -61 55 0 56 0 -3 58 -3 57 -52 3 -53 3 0 -60z" fill="#de4907"/>
</g>
</svg>